<svg width="89" height="24" viewBox="0 0 89 24" fill="none" xmlns="http://www.w3.org/2000/svg">
<path d="M19.356 19.1304V6.42087H22.499V8.53913H22.6217C22.8837 7.85739 23.2929 7.28927 23.8495 6.83478C24.4224 6.36406 25.2081 6.12869 26.2067 6.12869C27.5326 6.12869 28.5476 6.55884 29.2515 7.41913C29.9554 8.27942 30.3073 9.50493 30.3073 11.0957V19.1304H27.1643V11.4122C27.1643 10.5032 27.0006 9.82145 26.6732 9.36696C26.3458 8.91246 25.8056 8.68522 25.0526 8.68522C24.7252 8.68522 24.406 8.73391 24.095 8.8313C23.8004 8.91246 23.5303 9.04232 23.2847 9.22087C23.0555 9.38319 22.8673 9.5942 22.72 9.85391C22.5726 10.0974 22.499 10.3896 22.499 10.7304V19.1304H19.356Z" fill="#F4F4F4"/>
<path d="M34.072 1.11304H37.215V8.51478H37.3132C37.5424 7.78435 37.9762 7.20811 38.6146 6.78609C39.253 6.34782 39.9978 6.12869 40.849 6.12869C42.486 6.12869 43.7301 6.70493 44.5813 7.85739C45.4489 8.99362 45.8827 10.6249 45.8827 12.7513C45.8827 14.8939 45.4489 16.5414 44.5813 17.6939C43.7301 18.8464 42.486 19.4226 40.849 19.4226C39.9978 19.4226 39.253 19.2035 38.6146 18.7652C37.9925 18.327 37.5587 17.7426 37.3132 17.0122H37.215V19.1304H34.072V1.11304ZM39.8423 16.8417C40.6608 16.8417 41.3238 16.5739 41.8312 16.0383C42.3387 15.5026 42.5924 14.7803 42.5924 13.8713V11.68C42.5924 10.771 42.3387 10.0487 41.8312 9.51304C41.3238 8.96116 40.6608 8.68522 39.8423 8.68522C39.0893 8.68522 38.4591 8.87188 37.9516 9.24522C37.4605 9.61855 37.215 10.1136 37.215 10.7304V14.7722C37.215 15.4377 37.4605 15.949 37.9516 16.3061C38.4591 16.6632 39.0893 16.8417 39.8423 16.8417Z" fill="#F4F4F4"/>
<path d="M54.1585 19.4226C53.2418 19.4226 52.4151 19.2684 51.6785 18.96C50.9582 18.6516 50.3362 18.2052 49.8124 17.6209C49.3049 17.0365 48.912 16.3386 48.6338 15.527C48.3555 14.6991 48.2163 13.7739 48.2163 12.7513C48.2163 11.7287 48.3555 10.8116 48.6338 10C48.912 9.18841 49.3049 8.49855 49.8124 7.93043C50.3362 7.34609 50.9582 6.89971 51.6785 6.5913C52.4151 6.2829 53.2418 6.12869 54.1585 6.12869C55.0752 6.12869 55.9019 6.2829 56.6385 6.5913C57.3752 6.89971 57.9972 7.34609 58.5047 7.93043C59.0285 8.49855 59.4296 9.18841 59.7078 10C59.9861 10.8116 60.1253 11.7287 60.1253 12.7513C60.1253 13.7739 59.9861 14.6991 59.7078 15.527C59.4296 16.3386 59.0285 17.0365 58.5047 17.6209C57.9972 18.2052 57.3752 18.6516 56.6385 18.96C55.9019 19.2684 55.0752 19.4226 54.1585 19.4226ZM54.1585 16.9148C54.9934 16.9148 55.6482 16.6632 56.1229 16.16C56.5976 15.6568 56.835 14.9183 56.835 13.9443V11.5826C56.835 10.6249 56.5976 9.89449 56.1229 9.3913C55.6482 8.88811 54.9934 8.63652 54.1585 8.63652C53.34 8.63652 52.6934 8.88811 52.2187 9.3913C51.744 9.89449 51.5066 10.6249 51.5066 11.5826V13.9443C51.5066 14.9183 51.744 15.6568 52.2187 16.16C52.6934 16.6632 53.34 16.9148 54.1585 16.9148Z" fill="#F4F4F4"/>
<path d="M71.1479 17.0122H71.0252C70.796 17.7426 70.3622 18.327 69.7238 18.7652C69.0853 19.2035 68.3405 19.4226 67.4893 19.4226C65.8687 19.4226 64.6246 18.8464 63.757 17.6939C62.9058 16.5414 62.4802 14.8939 62.4802 12.7513C62.4802 10.6249 62.9058 8.99362 63.757 7.85739C64.6246 6.70493 65.8687 6.12869 67.4893 6.12869C68.3405 6.12869 69.0853 6.34782 69.7238 6.78609C70.3622 7.20811 70.796 7.78435 71.0252 8.51478H71.1479V1.11304H74.2909V19.1304H71.1479V17.0122ZM68.496 16.8417C69.249 16.8417 69.8793 16.6632 70.3867 16.3061C70.8942 15.949 71.1479 15.4377 71.1479 14.7722V10.7304C71.1479 10.1136 70.8942 9.61855 70.3867 9.24522C69.8793 8.87188 69.249 8.68522 68.496 8.68522C67.6776 8.68522 67.0146 8.96116 66.5071 9.51304C66.016 10.0487 65.7705 10.771 65.7705 11.68V13.8713C65.7705 14.7803 66.016 15.5026 66.5071 16.0383C67.0146 16.5739 67.6776 16.8417 68.496 16.8417Z" fill="#F4F4F4"/>
<path d="M86.0535 6.42087H89L83.8436 21.3948C83.6799 21.8493 83.4916 22.2388 83.2788 22.5635C83.0824 22.9043 82.845 23.1803 82.5667 23.3913C82.2884 23.6023 81.9529 23.7565 81.56 23.8539C81.1671 23.9513 80.7087 24 80.1849 24H78.2942V21.5165H80.6023L81.1917 19.7391L76.6 6.42087H79.7184L81.9529 13.1409L82.7877 16.3548H82.935L83.819 13.1409L86.0535 6.42087Z" fill="#F4F4F4"/>
<path d="M8.24256 18.8271C6.05705 18.8243 3.96189 17.9621 2.41667 16.4295C0.871444 14.897 0.00233914 12.8193 0 10.6522V4.96496H3.00565V10.6522C3.00565 12.0294 3.5574 13.3502 4.53951 14.3241C5.52162 15.2979 6.85365 15.845 8.24256 15.845C9.63147 15.845 10.9635 15.2979 11.9456 14.3241C12.9277 13.3502 13.4795 12.0294 13.4795 10.6522V4.96496H16.4798V10.6522C16.477 12.8182 15.6085 14.8949 14.0645 16.4272C12.5205 17.9595 10.427 18.8225 8.24256 18.8271Z" fill="white"/>
<path d="M6.74505 0H2.279V2.9821H6.74505V0Z" fill="white"/>
<path d="M12.7421 0.00182853H9.73468V3.04003H12.7421V0.00182853Z" fill="white"/>
</svg>
